<?xml version="1.0" encoding="UTF-8" standalone="no"?>
<svg
   width="2356"
   height="1324"
   xml:space="preserve"
   overflow="hidden"
   version="1.1"
   id="svg342"
   sodipodi:docname="F1-Score.svg"
   inkscape:version="1.2.2 (b0a84865, 2022-12-01)"
   xmlns:inkscape="http://www.inkscape.org/namespaces/inkscape"
   xmlns:sodipodi="http://sodipodi.sourceforge.net/DTD/sodipodi-0.dtd"
   xmlns="http://www.w3.org/2000/svg"
   xmlns:svg="http://www.w3.org/2000/svg"><sodipodi:namedview
     id="namedview344"
     pagecolor="#ffffff"
     bordercolor="#000000"
     borderopacity="0.25"
     inkscape:showpageshadow="2"
     inkscape:pageopacity="0.0"
     inkscape:pagecheckerboard="0"
     inkscape:deskcolor="#d1d1d1"
     showgrid="false"
     inkscape:zoom="0.50416073"
     inkscape:cx="1084.9715"
     inkscape:cy="651.57793"
     inkscape:window-width="1652"
     inkscape:window-height="871"
     inkscape:window-x="0"
     inkscape:window-y="25"
     inkscape:window-maximized="0"
     inkscape:current-layer="g340" /><defs
     id="defs150"><clipPath
       id="clip0"><rect
         x="6091"
         y="15597"
         width="2356"
         height="1324"
         id="rect9" /></clipPath><clipPath
       id="clip1"><rect
         x="6096"
         y="15599"
         width="2344"
         height="1318"
         id="rect12" /></clipPath><clipPath
       id="clip2"><rect
         x="7029"
         y="15769"
         width="1354"
         height="940"
         id="rect15" /></clipPath><clipPath
       id="clip3"><rect
         x="7029"
         y="15769"
         width="1354"
         height="940"
         id="rect18" /></clipPath><clipPath
       id="clip4"><rect
         x="7029"
         y="15769"
         width="1354"
         height="940"
         id="rect21" /></clipPath><clipPath
       id="clip5"><rect
         x="7029"
         y="15769"
         width="1354"
         height="940"
         id="rect24" /></clipPath><clipPath
       id="clip6"><rect
         x="7029"
         y="15769"
         width="1354"
         height="940"
         id="rect27" /></clipPath><clipPath
       id="clip7"><rect
         x="7029"
         y="15769"
         width="1354"
         height="940"
         id="rect30" /></clipPath><clipPath
       id="clip8"><rect
         x="7029"
         y="15769"
         width="1354"
         height="940"
         id="rect33" /></clipPath><clipPath
       id="clip9"><rect
         x="7029"
         y="15769"
         width="1354"
         height="940"
         id="rect36" /></clipPath><clipPath
       id="clip10"><rect
         x="6096"
         y="15599"
         width="2344"
         height="1318"
         id="rect39" /></clipPath><clipPath
       id="clip11"><rect
         x="6096"
         y="15599"
         width="2344"
         height="1318"
         id="rect42" /></clipPath><clipPath
       id="clip12"><rect
         x="6096"
         y="15599"
         width="2344"
         height="1318"
         id="rect45" /></clipPath><clipPath
       id="clip13"><rect
         x="6096"
         y="15599"
         width="2344"
         height="1318"
         id="rect48" /></clipPath><clipPath
       id="clip14"><rect
         x="6096"
         y="15599"
         width="2344"
         height="1318"
         id="rect51" /></clipPath><clipPath
       id="clip15"><rect
         x="6096"
         y="15599"
         width="2344"
         height="1318"
         id="rect54" /></clipPath><clipPath
       id="clip16"><rect
         x="6096"
         y="15599"
         width="2344"
         height="1318"
         id="rect57" /></clipPath><clipPath
       id="clip17"><rect
         x="6096"
         y="15599"
         width="2344"
         height="1318"
         id="rect60" /></clipPath><clipPath
       id="clip18"><rect
         x="6096"
         y="15599"
         width="2344"
         height="1318"
         id="rect63" /></clipPath><clipPath
       id="clip19"><rect
         x="6096"
         y="15599"
         width="2344"
         height="1318"
         id="rect66" /></clipPath><clipPath
       id="clip20"><rect
         x="6096"
         y="15599"
         width="2344"
         height="1318"
         id="rect69" /></clipPath><clipPath
       id="clip21"><rect
         x="6096"
         y="15599"
         width="2344"
         height="1318"
         id="rect72" /></clipPath><clipPath
       id="clip22"><rect
         x="6096"
         y="15599"
         width="2344"
         height="1318"
         id="rect75" /></clipPath><clipPath
       id="clip23"><rect
         x="6096"
         y="15599"
         width="2344"
         height="1318"
         id="rect78" /></clipPath><clipPath
       id="clip24"><rect
         x="6096"
         y="15599"
         width="2344"
         height="1318"
         id="rect81" /></clipPath><clipPath
       id="clip25"><rect
         x="6096"
         y="15599"
         width="2344"
         height="1318"
         id="rect84" /></clipPath><clipPath
       id="clip26"><rect
         x="6096"
         y="15599"
         width="2344"
         height="1318"
         id="rect87" /></clipPath><clipPath
       id="clip27"><rect
         x="6096"
         y="15599"
         width="2344"
         height="1318"
         id="rect90" /></clipPath><clipPath
       id="clip28"><rect
         x="6096"
         y="15599"
         width="2344"
         height="1318"
         id="rect93" /></clipPath><clipPath
       id="clip29"><rect
         x="6096"
         y="15599"
         width="2344"
         height="1318"
         id="rect96" /></clipPath><clipPath
       id="clip30"><rect
         x="6096"
         y="15599"
         width="2344"
         height="1318"
         id="rect99" /></clipPath><clipPath
       id="clip31"><rect
         x="6096"
         y="15599"
         width="2344"
         height="1318"
         id="rect102" /></clipPath><clipPath
       id="clip32"><rect
         x="6096"
         y="15599"
         width="2344"
         height="1318"
         id="rect105" /></clipPath><clipPath
       id="clip33"><rect
         x="6096"
         y="15599"
         width="2344"
         height="1318"
         id="rect108" /></clipPath><clipPath
       id="clip34"><rect
         x="6096"
         y="15599"
         width="2344"
         height="1318"
         id="rect111" /></clipPath><clipPath
       id="clip35"><rect
         x="6096"
         y="15599"
         width="2344"
         height="1318"
         id="rect114" /></clipPath><clipPath
       id="clip36"><rect
         x="6096"
         y="15599"
         width="2344"
         height="1318"
         id="rect117" /></clipPath><clipPath
       id="clip37"><rect
         x="6096"
         y="15599"
         width="2344"
         height="1318"
         id="rect120" /></clipPath><clipPath
       id="clip38"><rect
         x="6096"
         y="15599"
         width="2344"
         height="1318"
         id="rect123" /></clipPath><clipPath
       id="clip39"><rect
         x="6096"
         y="15599"
         width="2344"
         height="1318"
         id="rect126" /></clipPath><clipPath
       id="clip40"><rect
         x="6096"
         y="15599"
         width="2344"
         height="1318"
         id="rect129" /></clipPath><clipPath
       id="clip41"><rect
         x="6096"
         y="15599"
         width="2344"
         height="1318"
         id="rect132" /></clipPath><clipPath
       id="clip42"><rect
         x="6096"
         y="15599"
         width="2344"
         height="1318"
         id="rect135" /></clipPath><clipPath
       id="clip43"><rect
         x="6096"
         y="15599"
         width="2344"
         height="1318"
         id="rect138" /></clipPath><clipPath
       id="clip44"><rect
         x="6096"
         y="15599"
         width="2344"
         height="1318"
         id="rect141" /></clipPath><clipPath
       id="clip45"><rect
         x="6096"
         y="15599"
         width="2344"
         height="1318"
         id="rect144" /></clipPath><clipPath
       id="clip46"><rect
         x="6096"
         y="15599"
         width="2344"
         height="1318"
         id="rect147" /></clipPath></defs><g
     clip-path="url(#clip0)"
     transform="translate(-6091 -15597)"
     id="g340"><rect
       x="6096"
       y="15600"
       width="2345"
       height="1318"
       fill="#FFFFFF"
       fill-opacity="1"
       id="rect152" /><g
       clip-path="url(#clip1)"
       id="g156"><path
         d="M7163.74 15769.5 7163.74 16706.5M7299.74 15769.5 7299.74 16706.5M7434.74 15769.5 7434.74 16706.5M7569.75 15769.5 7569.75 16706.5M7704.75 15769.5 7704.75 16706.5M7839.76 15769.5 7839.76 16706.5M7974.76 15769.5 7974.76 16706.5M8109.77 15769.5 8109.77 16706.5M8244.77 15769.5 8244.77 16706.5M8379.5 15769.5 8379.5 16706.5"
         stroke="#D9D9D9"
         stroke-width="3.4375"
         stroke-linecap="butt"
         stroke-linejoin="round"
         stroke-miterlimit="10"
         stroke-opacity="1"
         fill="none"
         fill-rule="nonzero"
         id="path154" /></g><g
       clip-path="url(#clip2)"
       id="g160"><path
         d="M8190.27 16691.5 7029 16691.5 7029 16676.5 8190.27 16676.5ZM8217.27 16535.5 7029 16535.5 7029 16519.5 8217.27 16519.5ZM8177.27 16379.5 7029 16379.5 7029 16363.5 8177.27 16363.5ZM8204.27 16223.5 7029 16223.5 7029 16207.5 8204.27 16207.5ZM8204.27 16067.5 7029 16067.5 7029 16051.5 8204.27 16051.5ZM8204.27 15911.5 7029 15911.5 7029 15895.5 8204.27 15895.5Z"
         fill="#4472C4"
         fill-rule="nonzero"
         fill-opacity="1"
         id="path158" /></g><g
       clip-path="url(#clip3)"
       id="g164"><path
         d="M7799.26 16676.5 7029 16676.5 7029 16660.5 7799.26 16660.5ZM7880.26 16519.5 7029 16519.5 7029 16503.5 7880.26 16503.5ZM7785.26 16363.5 7029 16363.5 7029 16347.5 7785.26 16347.5ZM7866.26 16207.5 7029 16207.5 7029 16191.5 7866.26 16191.5ZM7826.26 16051.5 7029 16051.5 7029 16035.5 7826.26 16035.5ZM7839.26 15895.5 7029 15895.5 7029 15879.5 7839.26 15879.5Z"
         fill="#ED7D31"
         fill-rule="nonzero"
         fill-opacity="1"
         id="path162" /></g><g
       clip-path="url(#clip4)"
       id="g168"><path
         d="M8055.26 16660.5 7029 16660.5 7029 16644.5 8055.26 16644.5ZM8082.27 16503.5 7029 16503.5 7029 16488.5 8082.27 16488.5ZM8042.26 16347.5 7029 16347.5 7029 16331.5 8042.26 16331.5ZM8082.27 16191.5 7029 16191.5 7029 16175.5 8082.27 16175.5ZM8069.26 16035.5 7029 16035.5 7029 16019.5 8069.26 16019.5ZM8069.26 15879.5 7029 15879.5 7029 15863.5 8069.26 15863.5Z"
         fill="#A5A5A5"
         fill-rule="nonzero"
         fill-opacity="1"
         id="path166" /></g><g
       clip-path="url(#clip5)"
       id="g172"><path
         d="M7839.26 16644.5 7029 16644.5 7029 16628.5 7839.26 16628.5ZM7907.26 16488.5 7029 16488.5 7029 16472.5 7907.26 16472.5ZM7812.26 16331.5 7029 16331.5 7029 16316.5 7812.26 16316.5ZM7893.26 16175.5 7029 16175.5 7029 16159.5 7893.26 16159.5ZM7866.26 16019.5 7029 16019.5 7029 16003.5 7866.26 16003.5ZM7880.26 15863.5 7029 15863.5 7029 15847.5 7880.26 15847.5Z"
         fill="#FFC000"
         fill-rule="nonzero"
         fill-opacity="1"
         id="path170" /></g><g
       clip-path="url(#clip6)"
       id="g176"><path
         d="M7880.26 16628.5 7029 16628.5 7029 16612.5 7880.26 16612.5ZM7961.26 16472.5 7029 16472.5 7029 16456.5 7961.26 16456.5ZM7893.26 16316.5 7029 16316.5 7029 16300.5 7893.26 16300.5ZM7961.26 16159.5 7029 16159.5 7029 16144.5 7961.26 16144.5ZM7920.26 16003.5 7029 16003.5 7029 15987.5 7920.26 15987.5ZM7934.26 15847.5 7029 15847.5 7029 15831.5 7934.26 15831.5Z"
         fill="#5B9BD5"
         fill-rule="nonzero"
         fill-opacity="1"
         id="path174" /></g><g
       clip-path="url(#clip7)"
       id="g180"><path
         d="M7623.25 16612.5 7029 16612.5 7029 16596.5 7623.25 16596.5ZM7677.25 16456.5 7029 16456.5 7029 16440.5 7677.25 16440.5ZM7610.25 16300.5 7029 16300.5 7029 16284.5 7610.25 16284.5ZM7664.25 16144.5 7029 16144.5 7029 16128.5 7664.25 16128.5ZM7650.25 15987.5 7029 15987.5 7029 15972.5 7650.25 15972.5ZM7650.25 15831.5 7029 15831.5 7029 15815.5 7650.25 15815.5Z"
         fill="#70AD47"
         fill-rule="nonzero"
         fill-opacity="1"
         id="path178" /></g><g
       clip-path="url(#clip8)"
       id="g184"><path
         d="M7893.26 16596.5 7029 16596.5 7029 16580.5 7893.26 16580.5ZM7947.26 16440.5 7029 16440.5 7029 16424.5 7947.26 16424.5ZM7893.26 16284.5 7029 16284.5 7029 16268.5 7893.26 16268.5ZM7920.26 16128.5 7029 16128.5 7029 16112.5 7920.26 16112.5ZM7907.26 15972.5 7029 15972.5 7029 15956.5 7907.26 15956.5ZM7920.26 15815.5 7029 15815.5 7029 15800.5 7920.26 15800.5Z"
         fill="#264478"
         fill-rule="nonzero"
         fill-opacity="1"
         id="path182" /></g><g
       clip-path="url(#clip9)"
       id="g188"><path
         d="M7866.26 16580.5 7029 16580.5 7029 16564.5 7866.26 16564.5ZM7934.26 16424.5 7029 16424.5 7029 16408.5 7934.26 16408.5ZM7866.26 16268.5 7029 16268.5 7029 16252.5 7866.26 16252.5ZM7920.26 16112.5 7029 16112.5 7029 16096.5 7920.26 16096.5ZM7893.26 15956.5 7029 15956.5 7029 15940.5 7893.26 15940.5ZM7920.26 15800.5 7029 15800.5 7029 15784.5 7920.26 15784.5Z"
         fill="#9E480E"
         fill-rule="nonzero"
         fill-opacity="1"
         id="path186" /></g><g
       clip-path="url(#clip10)"
       id="g192"><path
         d="M0 0 0.000360892 937"
         stroke="#D9D9D9"
         stroke-width="3.4375"
         stroke-linecap="butt"
         stroke-linejoin="round"
         stroke-miterlimit="10"
         stroke-opacity="1"
         fill="none"
         fill-rule="evenodd"
         transform="matrix(1 0 0 -1 7029.5 16706.5)"
         id="path190" /></g><g
       clip-path="url(#clip11)"
       id="g196"><text
         fill="#595959"
         fill-opacity="1"
         font-family="Calibri,Calibri_MSFontService,sans-serif"
         font-style="normal"
         font-variant="normal"
         font-weight="400"
         font-stretch="normal"
         font-size="41"
         text-anchor="start"
         direction="ltr"
         writing-mode="lr-tb"
         unicode-bidi="normal"
         text-decoration="none"
         transform="matrix(1 0 0 1 7018.72 16772)"
         id="text194">0</text></g><g
       clip-path="url(#clip12)"
       id="g200"><text
         fill="#595959"
         fill-opacity="1"
         font-family="Calibri,Calibri_MSFontService,sans-serif"
         font-style="normal"
         font-variant="normal"
         font-weight="400"
         font-stretch="normal"
         font-size="41"
         text-anchor="start"
         direction="ltr"
         writing-mode="lr-tb"
         unicode-bidi="normal"
         text-decoration="none"
         transform="matrix(1 0 0 1 7138.13 16772)"
         id="text198">0.1</text></g><g
       clip-path="url(#clip13)"
       id="g204"><text
         fill="#595959"
         fill-opacity="1"
         font-family="Calibri,Calibri_MSFontService,sans-serif"
         font-style="normal"
         font-variant="normal"
         font-weight="400"
         font-stretch="normal"
         font-size="41"
         text-anchor="start"
         direction="ltr"
         writing-mode="lr-tb"
         unicode-bidi="normal"
         text-decoration="none"
         transform="matrix(1 0 0 1 7273.19 16772)"
         id="text202">0.2</text></g><g
       clip-path="url(#clip14)"
       id="g208"><text
         fill="#595959"
         fill-opacity="1"
         font-family="Calibri,Calibri_MSFontService,sans-serif"
         font-style="normal"
         font-variant="normal"
         font-weight="400"
         font-stretch="normal"
         font-size="41"
         text-anchor="start"
         direction="ltr"
         writing-mode="lr-tb"
         unicode-bidi="normal"
         text-decoration="none"
         transform="matrix(1 0 0 1 7408.25 16772)"
         id="text206">0.3</text></g><g
       clip-path="url(#clip15)"
       id="g212"><text
         fill="#595959"
         fill-opacity="1"
         font-family="Calibri,Calibri_MSFontService,sans-serif"
         font-style="normal"
         font-variant="normal"
         font-weight="400"
         font-stretch="normal"
         font-size="41"
         text-anchor="start"
         direction="ltr"
         writing-mode="lr-tb"
         unicode-bidi="normal"
         text-decoration="none"
         transform="matrix(1 0 0 1 7543.31 16772)"
         id="text210">0.4</text></g><g
       clip-path="url(#clip16)"
       id="g216"><text
         fill="#595959"
         fill-opacity="1"
         font-family="Calibri,Calibri_MSFontService,sans-serif"
         font-style="normal"
         font-variant="normal"
         font-weight="400"
         font-stretch="normal"
         font-size="41"
         text-anchor="start"
         direction="ltr"
         writing-mode="lr-tb"
         unicode-bidi="normal"
         text-decoration="none"
         transform="matrix(1 0 0 1 7678.37 16772)"
         id="text214">0.5</text></g><g
       clip-path="url(#clip17)"
       id="g220"><text
         fill="#595959"
         fill-opacity="1"
         font-family="Calibri,Calibri_MSFontService,sans-serif"
         font-style="normal"
         font-variant="normal"
         font-weight="400"
         font-stretch="normal"
         font-size="41"
         text-anchor="start"
         direction="ltr"
         writing-mode="lr-tb"
         unicode-bidi="normal"
         text-decoration="none"
         transform="matrix(1 0 0 1 7813.43 16772)"
         id="text218">0.6</text></g><g
       clip-path="url(#clip18)"
       id="g224"><text
         fill="#595959"
         fill-opacity="1"
         font-family="Calibri,Calibri_MSFontService,sans-serif"
         font-style="normal"
         font-variant="normal"
         font-weight="400"
         font-stretch="normal"
         font-size="41"
         text-anchor="start"
         direction="ltr"
         writing-mode="lr-tb"
         unicode-bidi="normal"
         text-decoration="none"
         transform="matrix(1 0 0 1 7948.49 16772)"
         id="text222">0.7</text></g><g
       clip-path="url(#clip19)"
       id="g228"><text
         fill="#595959"
         fill-opacity="1"
         font-family="Calibri,Calibri_MSFontService,sans-serif"
         font-style="normal"
         font-variant="normal"
         font-weight="400"
         font-stretch="normal"
         font-size="41"
         text-anchor="start"
         direction="ltr"
         writing-mode="lr-tb"
         unicode-bidi="normal"
         text-decoration="none"
         transform="matrix(1 0 0 1 8083.54 16772)"
         id="text226">0.8</text></g><g
       clip-path="url(#clip20)"
       id="g232"><text
         fill="#595959"
         fill-opacity="1"
         font-family="Calibri,Calibri_MSFontService,sans-serif"
         font-style="normal"
         font-variant="normal"
         font-weight="400"
         font-stretch="normal"
         font-size="41"
         text-anchor="start"
         direction="ltr"
         writing-mode="lr-tb"
         unicode-bidi="normal"
         text-decoration="none"
         transform="matrix(1 0 0 1 8218.6 16772)"
         id="text230">0.9</text></g><g
       clip-path="url(#clip21)"
       id="g236"><text
         fill="#595959"
         fill-opacity="1"
         font-family="Calibri,Calibri_MSFontService,sans-serif"
         font-style="normal"
         font-variant="normal"
         font-weight="400"
         font-stretch="normal"
         font-size="41"
         text-anchor="start"
         direction="ltr"
         writing-mode="lr-tb"
         unicode-bidi="normal"
         text-decoration="none"
         transform="matrix(1 0 0 1 8369.32 16772)"
         id="text234">1</text></g><g
       clip-path="url(#clip22)"
       id="g240"
       transform="matrix(0.84228388,0,0,1,966.50838,0)"><text
         fill="#595959"
         fill-opacity="1"
         font-family="Calibri, Calibri_MSFontService, sans-serif"
         font-style="normal"
         font-variant="normal"
         font-weight="400"
         font-stretch="normal"
         font-size="41px"
         text-anchor="start"
         direction="ltr"
         writing-mode="lr-tb"
         unicode-bidi="normal"
         text-decoration="none"
         transform="translate(6126.05,16638)"
         id="text238"
         style="text-decoration:none;text-decoration-line:none">cl-tohoku/bert-base-japanese-whole-word-masking</text></g><g
       clip-path="url(#clip23)"
       id="g244"
       transform="translate(-57.44)"><text
         fill="#595959"
         fill-opacity="1"
         font-family="Calibri, Calibri_MSFontService, sans-serif"
         font-style="normal"
         font-variant="normal"
         font-weight="400"
         font-stretch="normal"
         font-size="41px"
         text-anchor="start"
         direction="ltr"
         writing-mode="lr-tb"
         unicode-bidi="normal"
         text-decoration="none"
         transform="translate(6583.44,16482)"
         id="text242"
         style="text-decoration:none;text-decoration-line:none">Twitter/twhin-bert-base</text></g><g
       clip-path="url(#clip24)"
       id="g248"
       transform="translate(-88.873613)"><text
         fill="#595959"
         fill-opacity="1"
         font-family="Calibri, Calibri_MSFontService, sans-serif"
         font-style="normal"
         font-variant="normal"
         font-weight="400"
         font-stretch="normal"
         font-size="41px"
         text-anchor="start"
         direction="ltr"
         writing-mode="lr-tb"
         unicode-bidi="normal"
         text-decoration="none"
         transform="translate(6531.17,16326)"
         id="text246"
         style="text-decoration:none;text-decoration-line:none">hajime9652/xlnet-japanese</text></g><g
       clip-path="url(#clip25)"
       id="g252"
       transform="translate(-91.093613)"><text
         fill="#595959"
         fill-opacity="1"
         font-family="Calibri, Calibri_MSFontService, sans-serif"
         font-style="normal"
         font-variant="normal"
         font-weight="400"
         font-stretch="normal"
         font-size="41px"
         text-anchor="start"
         direction="ltr"
         writing-mode="lr-tb"
         unicode-bidi="normal"
         text-decoration="none"
         transform="translate(6508.39,16170)"
         id="text250"
         style="text-decoration:none;text-decoration-line:none">rinna/japanese-roberta-base</text></g><g
       clip-path="url(#clip26)"
       id="g256"
       transform="translate(-115.26361)"><text
         fill="#595959"
         fill-opacity="1"
         font-family="Calibri, Calibri_MSFontService, sans-serif"
         font-style="normal"
         font-variant="normal"
         font-weight="400"
         font-stretch="normal"
         font-size="41px"
         text-anchor="start"
         direction="ltr"
         writing-mode="lr-tb"
         unicode-bidi="normal"
         text-decoration="none"
         transform="translate(6402.56,16014)"
         id="text254"
         style="text-decoration:none;text-decoration-line:none">nlp-waseda/roberta-base-japanese</text></g><g
       clip-path="url(#clip27)"
       id="g260"
       transform="translate(-51.141172)"><text
         fill="#595959"
         fill-opacity="1"
         font-family="Calibri, Calibri_MSFontService, sans-serif"
         font-style="normal"
         font-variant="normal"
         font-weight="400"
         font-stretch="normal"
         font-size="41px"
         text-anchor="start"
         direction="ltr"
         writing-mode="lr-tb"
         unicode-bidi="normal"
         text-decoration="none"
         transform="translate(6700.94,15858)"
         id="text258"
         style="text-decoration:none;text-decoration-line:none">xlm-roberta-base</text></g><g
       clip-path="url(#clip28)"
       id="g264"><text
         fill="#595959"
         fill-opacity="1"
         font-family="Calibri,Calibri_MSFontService,sans-serif"
         font-style="normal"
         font-variant="normal"
         font-weight="400"
         font-stretch="normal"
         font-size="64"
         text-anchor="start"
         direction="ltr"
         writing-mode="lr-tb"
         unicode-bidi="normal"
         text-decoration="none"
         transform="matrix(1 0 0 1 6860.13 15695)"
         id="text262">F1</text></g><g
       clip-path="url(#clip29)"
       id="g268"><text
         fill="#595959"
         fill-opacity="1"
         font-family="Calibri,Calibri_MSFontService,sans-serif"
         font-style="normal"
         font-variant="normal"
         font-weight="400"
         font-stretch="normal"
         font-size="64"
         text-anchor="start"
         direction="ltr"
         writing-mode="lr-tb"
         unicode-bidi="normal"
         text-decoration="none"
         transform="matrix(1 0 0 1 6922.14 15695)"
         id="text266">-</text></g><g
       clip-path="url(#clip30)"
       id="g272"><text
         fill="#595959"
         fill-opacity="1"
         font-family="Calibri,Calibri_MSFontService,sans-serif"
         font-style="normal"
         font-variant="normal"
         font-weight="400"
         font-stretch="normal"
         font-size="64"
         text-anchor="start"
         direction="ltr"
         writing-mode="lr-tb"
         unicode-bidi="normal"
         text-decoration="none"
         transform="matrix(1 0 0 1 6941.78 15695)"
         id="text270">Score of Each Emotion Label</text></g><g
       clip-path="url(#clip31)"
       id="g276"><rect
         x="6547"
         y="16840"
         width="23"
         height="23"
         fill="#9E480E"
         fill-opacity="1"
         id="rect274" /></g><g
       clip-path="url(#clip32)"
       id="g280"><text
         fill="#595959"
         fill-opacity="1"
         font-family="Calibri,Calibri_MSFontService,sans-serif"
         font-style="normal"
         font-variant="normal"
         font-weight="400"
         font-stretch="normal"
         font-size="41"
         text-anchor="start"
         direction="ltr"
         writing-mode="lr-tb"
         unicode-bidi="normal"
         text-decoration="none"
         transform="matrix(1 0 0 1 6579.55 16861)"
         id="text278">Trust</text></g><g
       clip-path="url(#clip33)"
       id="g284"><rect
         x="6707"
         y="16840"
         width="23"
         height="23"
         fill="#264478"
         fill-opacity="1"
         id="rect282" /></g><g
       clip-path="url(#clip34)"
       id="g288"><text
         fill="#595959"
         fill-opacity="1"
         font-family="Calibri,Calibri_MSFontService,sans-serif"
         font-style="normal"
         font-variant="normal"
         font-weight="400"
         font-stretch="normal"
         font-size="41"
         text-anchor="start"
         direction="ltr"
         writing-mode="lr-tb"
         unicode-bidi="normal"
         text-decoration="none"
         transform="matrix(1 0 0 1 6739.29 16861)"
         id="text286">Disgust</text></g><g
       clip-path="url(#clip35)"
       id="g292"><rect
         x="6903"
         y="16840"
         width="22"
         height="23"
         fill="#70AD47"
         fill-opacity="1"
         id="rect290" /></g><g
       clip-path="url(#clip36)"
       id="g296"><text
         fill="#595959"
         fill-opacity="1"
         font-family="Calibri,Calibri_MSFontService,sans-serif"
         font-style="normal"
         font-variant="normal"
         font-weight="400"
         font-stretch="normal"
         font-size="41"
         text-anchor="start"
         direction="ltr"
         writing-mode="lr-tb"
         unicode-bidi="normal"
         text-decoration="none"
         transform="matrix(1 0 0 1 6934.91 16861)"
         id="text294">Fear</text></g><g
       clip-path="url(#clip37)"
       id="g300"><rect
         x="7050"
         y="16840"
         width="23"
         height="23"
         fill="#5B9BD5"
         fill-opacity="1"
         id="rect298" /></g><g
       clip-path="url(#clip38)"
       id="g304"><text
         fill="#595959"
         fill-opacity="1"
         font-family="Calibri,Calibri_MSFontService,sans-serif"
         font-style="normal"
         font-variant="normal"
         font-weight="400"
         font-stretch="normal"
         font-size="41"
         text-anchor="start"
         direction="ltr"
         writing-mode="lr-tb"
         unicode-bidi="normal"
         text-decoration="none"
         transform="matrix(1 0 0 1 7082.16 16861)"
         id="text302">Anger</text></g><g
       clip-path="url(#clip39)"
       id="g308"><rect
         x="7223"
         y="16840"
         width="23"
         height="23"
         fill="#FFC000"
         fill-opacity="1"
         id="rect306" /></g><g
       clip-path="url(#clip40)"
       id="g312"><text
         fill="#595959"
         fill-opacity="1"
         font-family="Calibri,Calibri_MSFontService,sans-serif"
         font-style="normal"
         font-variant="normal"
         font-weight="400"
         font-stretch="normal"
         font-size="41"
         text-anchor="start"
         direction="ltr"
         writing-mode="lr-tb"
         unicode-bidi="normal"
         text-decoration="none"
         transform="matrix(1 0 0 1 7255.68 16861)"
         id="text310">Surprise</text></g><g
       clip-path="url(#clip41)"
       id="g316"><rect
         x="7434"
         y="16840"
         width="23"
         height="23"
         fill="#A5A5A5"
         fill-opacity="1"
         id="rect314" /></g><g
       clip-path="url(#clip42)"
       id="g320"><text
         fill="#595959"
         fill-opacity="1"
         font-family="Calibri,Calibri_MSFontService,sans-serif"
         font-style="normal"
         font-variant="normal"
         font-weight="400"
         font-stretch="normal"
         font-size="41"
         text-anchor="start"
         direction="ltr"
         writing-mode="lr-tb"
         unicode-bidi="normal"
         text-decoration="none"
         transform="matrix(1 0 0 1 7466.52 16861)"
         id="text318">Anticipation</text></g><g
       clip-path="url(#clip43)"
       id="g324"><rect
         x="7712"
         y="16840"
         width="22"
         height="23"
         fill="#ED7D31"
         fill-opacity="1"
         id="rect322" /></g><g
       clip-path="url(#clip44)"
       id="g328"><text
         fill="#595959"
         fill-opacity="1"
         font-family="Calibri,Calibri_MSFontService,sans-serif"
         font-style="normal"
         font-variant="normal"
         font-weight="400"
         font-stretch="normal"
         font-size="41"
         text-anchor="start"
         direction="ltr"
         writing-mode="lr-tb"
         unicode-bidi="normal"
         text-decoration="none"
         transform="matrix(1 0 0 1 7744.03 16861)"
         id="text326">Sadness</text></g><g
       clip-path="url(#clip45)"
       id="g332"><rect
         x="7920"
         y="16840"
         width="23"
         height="23"
         fill="#4472C4"
         fill-opacity="1"
         id="rect330" /></g><g
       clip-path="url(#clip46)"
       id="g336"><text
         fill="#595959"
         fill-opacity="1"
         font-family="Calibri,Calibri_MSFontService,sans-serif"
         font-style="normal"
         font-variant="normal"
         font-weight="400"
         font-stretch="normal"
         font-size="41"
         text-anchor="start"
         direction="ltr"
         writing-mode="lr-tb"
         unicode-bidi="normal"
         text-decoration="none"
         transform="matrix(1 0 0 1 7952.51 16861)"
         id="text334">Joy</text></g><rect
       x="6096.5"
       y="15600.5"
       width="2345"
       height="1318"
       stroke="#D9D9D9"
       stroke-width="3.4375"
       stroke-linecap="butt"
       stroke-linejoin="round"
       stroke-miterlimit="10"
       stroke-opacity="1"
       fill="none"
       id="rect338" /></g></svg>
