<?xml version="1.0" encoding="UTF-8" standalone="no"?>
<svg
   width="2337"
   height="1380"
   xml:space="preserve"
   overflow="hidden"
   version="1.1"
   id="svg328"
   sodipodi:docname="図1.svg"
   inkscape:version="1.2.2 (b0a84865, 2022-12-01)"
   xmlns:inkscape="http://www.inkscape.org/namespaces/inkscape"
   xmlns:sodipodi="http://sodipodi.sourceforge.net/DTD/sodipodi-0.dtd"
   xmlns="http://www.w3.org/2000/svg"
   xmlns:svg="http://www.w3.org/2000/svg"><sodipodi:namedview
     id="namedview330"
     pagecolor="#ffffff"
     bordercolor="#000000"
     borderopacity="0.25"
     inkscape:showpageshadow="2"
     inkscape:pageopacity="0.0"
     inkscape:pagecheckerboard="0"
     inkscape:deskcolor="#d1d1d1"
     showgrid="false"
     inkscape:zoom="0.48370203"
     inkscape:cx="1223.894"
     inkscape:cy="608.84591"
     inkscape:window-width="1920"
     inkscape:window-height="1027"
     inkscape:window-x="0"
     inkscape:window-y="25"
     inkscape:window-maximized="0"
     inkscape:current-layer="g326" /><defs
     id="defs144"><clipPath
       id="clip0"><rect
         x="6091"
         y="12851"
         width="2337"
         height="1380"
         id="rect9" /></clipPath><clipPath
       id="clip1"><rect
         x="6096"
         y="12856"
         width="2327"
         height="1372"
         id="rect12" /></clipPath><clipPath
       id="clip2"><rect
         x="7029"
         y="13026"
         width="1336"
         height="995"
         id="rect15" /></clipPath><clipPath
       id="clip3"><rect
         x="7029"
         y="13026"
         width="1336"
         height="995"
         id="rect18" /></clipPath><clipPath
       id="clip4"><rect
         x="7029"
         y="13026"
         width="1336"
         height="995"
         id="rect21" /></clipPath><clipPath
       id="clip5"><rect
         x="7029"
         y="13026"
         width="1336"
         height="995"
         id="rect24" /></clipPath><clipPath
       id="clip6"><rect
         x="7029"
         y="13026"
         width="1336"
         height="995"
         id="rect27" /></clipPath><clipPath
       id="clip7"><rect
         x="7029"
         y="13026"
         width="1336"
         height="995"
         id="rect30" /></clipPath><clipPath
       id="clip8"><rect
         x="7029"
         y="13026"
         width="1336"
         height="995"
         id="rect33" /></clipPath><clipPath
       id="clip9"><rect
         x="7029"
         y="13026"
         width="1336"
         height="995"
         id="rect36" /></clipPath><clipPath
       id="clip10"><rect
         x="6096"
         y="12856"
         width="2327"
         height="1372"
         id="rect39" /></clipPath><clipPath
       id="clip11"><rect
         x="6096"
         y="12856"
         width="2327"
         height="1372"
         id="rect42" /></clipPath><clipPath
       id="clip12"><rect
         x="6096"
         y="12856"
         width="2327"
         height="1372"
         id="rect45" /></clipPath><clipPath
       id="clip13"><rect
         x="6096"
         y="12856"
         width="2327"
         height="1372"
         id="rect48" /></clipPath><clipPath
       id="clip14"><rect
         x="6096"
         y="12856"
         width="2327"
         height="1372"
         id="rect51" /></clipPath><clipPath
       id="clip15"><rect
         x="6096"
         y="12856"
         width="2327"
         height="1372"
         id="rect54" /></clipPath><clipPath
       id="clip16"><rect
         x="6096"
         y="12856"
         width="2327"
         height="1372"
         id="rect57" /></clipPath><clipPath
       id="clip17"><rect
         x="6096"
         y="12856"
         width="2327"
         height="1372"
         id="rect60" /></clipPath><clipPath
       id="clip18"><rect
         x="6096"
         y="12856"
         width="2327"
         height="1372"
         id="rect63" /></clipPath><clipPath
       id="clip19"><rect
         x="6096"
         y="12856"
         width="2327"
         height="1372"
         id="rect66" /></clipPath><clipPath
       id="clip20"><rect
         x="6096"
         y="12856"
         width="2327"
         height="1372"
         id="rect69" /></clipPath><clipPath
       id="clip21"><rect
         x="6096"
         y="12856"
         width="2327"
         height="1372"
         id="rect72" /></clipPath><clipPath
       id="clip22"><rect
         x="6096"
         y="12856"
         width="2327"
         height="1372"
         id="rect75" /></clipPath><clipPath
       id="clip23"><rect
         x="6096"
         y="12856"
         width="2327"
         height="1372"
         id="rect78" /></clipPath><clipPath
       id="clip24"><rect
         x="6096"
         y="12856"
         width="2327"
         height="1372"
         id="rect81" /></clipPath><clipPath
       id="clip25"><rect
         x="6096"
         y="12856"
         width="2327"
         height="1372"
         id="rect84" /></clipPath><clipPath
       id="clip26"><rect
         x="6096"
         y="12856"
         width="2327"
         height="1372"
         id="rect87" /></clipPath><clipPath
       id="clip27"><rect
         x="6096"
         y="12856"
         width="2327"
         height="1372"
         id="rect90" /></clipPath><clipPath
       id="clip28"><rect
         x="6096"
         y="12856"
         width="2327"
         height="1372"
         id="rect93" /></clipPath><clipPath
       id="clip29"><rect
         x="6096"
         y="12856"
         width="2327"
         height="1372"
         id="rect96" /></clipPath><clipPath
       id="clip30"><rect
         x="6096"
         y="12856"
         width="2327"
         height="1372"
         id="rect99" /></clipPath><clipPath
       id="clip31"><rect
         x="6096"
         y="12856"
         width="2327"
         height="1372"
         id="rect102" /></clipPath><clipPath
       id="clip32"><rect
         x="6096"
         y="12856"
         width="2327"
         height="1372"
         id="rect105" /></clipPath><clipPath
       id="clip33"><rect
         x="6096"
         y="12856"
         width="2327"
         height="1372"
         id="rect108" /></clipPath><clipPath
       id="clip34"><rect
         x="6096"
         y="12856"
         width="2327"
         height="1372"
         id="rect111" /></clipPath><clipPath
       id="clip35"><rect
         x="6096"
         y="12856"
         width="2327"
         height="1372"
         id="rect114" /></clipPath><clipPath
       id="clip36"><rect
         x="6096"
         y="12856"
         width="2327"
         height="1372"
         id="rect117" /></clipPath><clipPath
       id="clip37"><rect
         x="6096"
         y="12856"
         width="2327"
         height="1372"
         id="rect120" /></clipPath><clipPath
       id="clip38"><rect
         x="6096"
         y="12856"
         width="2327"
         height="1372"
         id="rect123" /></clipPath><clipPath
       id="clip39"><rect
         x="6096"
         y="12856"
         width="2327"
         height="1372"
         id="rect126" /></clipPath><clipPath
       id="clip40"><rect
         x="6096"
         y="12856"
         width="2327"
         height="1372"
         id="rect129" /></clipPath><clipPath
       id="clip41"><rect
         x="6096"
         y="12856"
         width="2327"
         height="1372"
         id="rect132" /></clipPath><clipPath
       id="clip42"><rect
         x="6096"
         y="12856"
         width="2327"
         height="1372"
         id="rect135" /></clipPath><clipPath
       id="clip43"><rect
         x="6096"
         y="12856"
         width="2327"
         height="1372"
         id="rect138" /></clipPath><clipPath
       id="clip44"><rect
         x="6096"
         y="12856"
         width="2327"
         height="1372"
         id="rect141" /></clipPath></defs><g
     clip-path="url(#clip0)"
     transform="translate(-6091 -12851)"
     id="g326"><rect
       x="6096"
       y="12856"
       width="2327"
       height="1373"
       fill="#FFFFFF"
       fill-opacity="1"
       id="rect146" /><g
       clip-path="url(#clip1)"
       id="g150"><path
         d="M7162.74 13026.5 7162.74 14017.5M7295.74 13026.5 7295.74 14017.5M7428.74 13026.5 7428.74 14017.5M7562.75 13026.5 7562.75 14017.5M7695.75 13026.5 7695.75 14017.5M7828.76 13026.5 7828.76 14017.5M7962.76 13026.5 7962.76 14017.5M8095.77 13026.5 8095.77 14017.5M8228.77 13026.5 8228.77 14017.5M8362.5 13026.5 8362.5 14017.5"
         stroke="#D9D9D9"
         stroke-width="3.4375"
         stroke-linecap="butt"
         stroke-linejoin="round"
         stroke-miterlimit="10"
         stroke-opacity="1"
         fill="none"
         fill-rule="nonzero"
         id="path148" /></g><g
       clip-path="url(#clip2)"
       id="g154"><path
         d="M8189.27 14002.5 7029 14002.5 7029 13985.5 8189.27 13985.5ZM8215.27 13837.5 7029 13837.5 7029 13820.5 8215.27 13820.5ZM8202.27 13671.4 7029 13671.4 7029 13655.4 8202.27 13655.4ZM8202.27 13506.4 7029 13506.4 7029 13489.4 8202.27 13489.4ZM8202.27 13341.4 7029 13341.4 7029 13324.4 8202.27 13324.4ZM8215.27 13176.4 7029 13176.4 7029 13159.4 8215.27 13159.4Z"
         fill="#4472C4"
         fill-rule="nonzero"
         fill-opacity="1"
         id="path152" /></g><g
       clip-path="url(#clip3)"
       id="g158"><path
         d="M7829.26 13985.5 7029 13985.5 7029 13968.5 7829.26 13968.5ZM7869.26 13820.5 7029 13820.5 7029 13803.5 7869.26 13803.5ZM7869.26 13655.4 7029 13655.4 7029 13638.4 7869.26 13638.4ZM7869.26 13489.4 7029 13489.4 7029 13473.4 7869.26 13473.4ZM7882.26 13324.4 7029 13324.4 7029 13307.4 7882.26 13307.4ZM7895.26 13159.4 7029 13159.4 7029 13142.4 7895.26 13142.4Z"
         fill="#ED7D31"
         fill-rule="nonzero"
         fill-opacity="1"
         id="path156" /></g><g
       clip-path="url(#clip4)"
       id="g162"><path
         d="M8069.26 13968.5 7029 13968.5 7029 13951.5 8069.26 13951.5ZM8095.27 13803.5 7029 13803.5 7029 13786.5 8095.27 13786.5ZM8069.26 13638.4 7029 13638.4 7029 13621.4 8069.26 13621.4ZM8122.27 13473.4 7029 13473.4 7029 13456.4 8122.27 13456.4ZM8095.27 13307.4 7029 13307.4 7029 13290.4 8095.27 13290.4ZM8095.27 13142.4 7029 13142.4 7029 13125.4 8095.27 13125.4Z"
         fill="#A5A5A5"
         fill-rule="nonzero"
         fill-opacity="1"
         id="path160" /></g><g
       clip-path="url(#clip5)"
       id="g166"><path
         d="M7935.26 13951.5 7029 13951.5 7029 13935.5 7935.26 13935.5ZM7962.26 13786.5 7029 13786.5 7029 13769.5 7962.26 13769.5ZM7949.26 13621.4 7029 13621.4 7029 13604.4 7949.26 13604.4ZM7935.26 13456.4 7029 13456.4 7029 13439.4 7935.26 13439.4ZM7962.26 13290.4 7029 13290.4 7029 13274.4 7962.26 13274.4ZM7989.26 13125.4 7029 13125.4 7029 13108.4 7989.26 13108.4Z"
         fill="#FFC000"
         fill-rule="nonzero"
         fill-opacity="1"
         id="path164" /></g><g
       clip-path="url(#clip6)"
       id="g170"><path
         d="M7922.26 13935.5 7029 13935.5 7029 13918.5 7922.26 13918.5ZM7975.26 13769.5 7029 13769.5 7029 13753.5 7975.26 13753.5ZM7909.26 13604.4 7029 13604.4 7029 13587.4 7909.26 13587.4ZM7962.26 13439.4 7029 13439.4 7029 13422.4 7962.26 13422.4ZM7949.26 13274.4 7029 13274.4 7029 13257.4 7949.26 13257.4ZM7989.26 13108.4 7029 13108.4 7029 13092.4 7989.26 13092.4Z"
         fill="#5B9BD5"
         fill-rule="nonzero"
         fill-opacity="1"
         id="path168" /></g><g
       clip-path="url(#clip7)"
       id="g174"><path
         d="M7736.25 13918.5 7029 13918.5 7029 13901.5 7736.25 13901.5ZM7816.26 13753.5 7029 13753.5 7029 13736.5 7816.26 13736.5ZM7816.26 13587.4 7029 13587.4 7029 13570.4 7816.26 13570.4ZM7869.26 13422.4 7029 13422.4 7029 13405.4 7869.26 13405.4ZM7829.26 13257.4 7029 13257.4 7029 13240.4 7829.26 13240.4ZM7842.26 13092.4 7029 13092.4 7029 13075.4 7842.26 13075.4Z"
         fill="#70AD47"
         fill-rule="nonzero"
         fill-opacity="1"
         id="path172" /></g><g
       clip-path="url(#clip8)"
       id="g178"><path
         d="M8015.26 13901.5 7029 13901.5 7029 13884.5 8015.26 13884.5ZM7989.26 13736.5 7029 13736.5 7029 13719.5 7989.26 13719.5ZM8042.26 13570.4 7029 13570.4 7029 13554.4 8042.26 13554.4ZM8042.26 13405.4 7029 13405.4 7029 13388.4 8042.26 13388.4ZM8082.27 13240.4 7029 13240.4 7029 13223.4 8082.27 13223.4ZM8109.27 13075.4 7029 13075.4 7029 13058.4 8109.27 13058.4Z"
         fill="#264478"
         fill-rule="nonzero"
         fill-opacity="1"
         id="path176" /></g><g
       clip-path="url(#clip9)"
       id="g182"><path
         d="M7975.26 13884.5 7029 13884.5 7029 13867.5 7975.26 13867.5ZM7989.26 13719.5 7029 13719.5 7029 13702.4 7989.26 13702.4ZM8015.26 13554.4 7029 13554.4 7029 13537.4 8015.26 13537.4ZM8015.26 13388.4 7029 13388.4 7029 13372.4 8015.26 13372.4ZM8029.26 13223.4 7029 13223.4 7029 13206.4 8029.26 13206.4ZM8029.26 13058.4 7029 13058.4 7029 13041.4 8029.26 13041.4Z"
         fill="#9E480E"
         fill-rule="nonzero"
         fill-opacity="1"
         id="path180" /></g><g
       clip-path="url(#clip10)"
       id="g186"><path
         d="M0 0 0.000360892 991"
         stroke="#D9D9D9"
         stroke-width="3.4375"
         stroke-linecap="butt"
         stroke-linejoin="round"
         stroke-miterlimit="10"
         stroke-opacity="1"
         fill="none"
         fill-rule="evenodd"
         transform="matrix(1 0 0 -1 7029.5 14017.5)"
         id="path184" /></g><g
       clip-path="url(#clip11)"
       id="g190"><text
         fill="#595959"
         fill-opacity="1"
         font-family="Calibri,Calibri_MSFontService,sans-serif"
         font-style="normal"
         font-variant="normal"
         font-weight="400"
         font-stretch="normal"
         font-size="41"
         text-anchor="start"
         direction="ltr"
         writing-mode="lr-tb"
         unicode-bidi="normal"
         text-decoration="none"
         transform="matrix(1 0 0 1 7018.78 14083)"
         id="text188">0</text></g><g
       clip-path="url(#clip12)"
       id="g194"><text
         fill="#595959"
         fill-opacity="1"
         font-family="Calibri,Calibri_MSFontService,sans-serif"
         font-style="normal"
         font-variant="normal"
         font-weight="400"
         font-stretch="normal"
         font-size="41"
         text-anchor="start"
         direction="ltr"
         writing-mode="lr-tb"
         unicode-bidi="normal"
         text-decoration="none"
         transform="matrix(1 0 0 1 7136.44 14083)"
         id="text192">0.1</text></g><g
       clip-path="url(#clip13)"
       id="g198"><text
         fill="#595959"
         fill-opacity="1"
         font-family="Calibri,Calibri_MSFontService,sans-serif"
         font-style="normal"
         font-variant="normal"
         font-weight="400"
         font-stretch="normal"
         font-size="41"
         text-anchor="start"
         direction="ltr"
         writing-mode="lr-tb"
         unicode-bidi="normal"
         text-decoration="none"
         transform="matrix(1 0 0 1 7269.75 14083)"
         id="text196">0.2</text></g><g
       clip-path="url(#clip14)"
       id="g202"><text
         fill="#595959"
         fill-opacity="1"
         font-family="Calibri,Calibri_MSFontService,sans-serif"
         font-style="normal"
         font-variant="normal"
         font-weight="400"
         font-stretch="normal"
         font-size="41"
         text-anchor="start"
         direction="ltr"
         writing-mode="lr-tb"
         unicode-bidi="normal"
         text-decoration="none"
         transform="matrix(1 0 0 1 7403.06 14083)"
         id="text200">0.3</text></g><g
       clip-path="url(#clip15)"
       id="g206"><text
         fill="#595959"
         fill-opacity="1"
         font-family="Calibri,Calibri_MSFontService,sans-serif"
         font-style="normal"
         font-variant="normal"
         font-weight="400"
         font-stretch="normal"
         font-size="41"
         text-anchor="start"
         direction="ltr"
         writing-mode="lr-tb"
         unicode-bidi="normal"
         text-decoration="none"
         transform="matrix(1 0 0 1 7536.37 14083)"
         id="text204">0.4</text></g><g
       clip-path="url(#clip16)"
       id="g210"><text
         fill="#595959"
         fill-opacity="1"
         font-family="Calibri,Calibri_MSFontService,sans-serif"
         font-style="normal"
         font-variant="normal"
         font-weight="400"
         font-stretch="normal"
         font-size="41"
         text-anchor="start"
         direction="ltr"
         writing-mode="lr-tb"
         unicode-bidi="normal"
         text-decoration="none"
         transform="matrix(1 0 0 1 7669.68 14083)"
         id="text208">0.5</text></g><g
       clip-path="url(#clip17)"
       id="g214"><text
         fill="#595959"
         fill-opacity="1"
         font-family="Calibri,Calibri_MSFontService,sans-serif"
         font-style="normal"
         font-variant="normal"
         font-weight="400"
         font-stretch="normal"
         font-size="41"
         text-anchor="start"
         direction="ltr"
         writing-mode="lr-tb"
         unicode-bidi="normal"
         text-decoration="none"
         transform="matrix(1 0 0 1 7802.99 14083)"
         id="text212">0.6</text></g><g
       clip-path="url(#clip18)"
       id="g218"><text
         fill="#595959"
         fill-opacity="1"
         font-family="Calibri,Calibri_MSFontService,sans-serif"
         font-style="normal"
         font-variant="normal"
         font-weight="400"
         font-stretch="normal"
         font-size="41"
         text-anchor="start"
         direction="ltr"
         writing-mode="lr-tb"
         unicode-bidi="normal"
         text-decoration="none"
         transform="matrix(1 0 0 1 7936.3 14083)"
         id="text216">0.7</text></g><g
       clip-path="url(#clip19)"
       id="g222"><text
         fill="#595959"
         fill-opacity="1"
         font-family="Calibri,Calibri_MSFontService,sans-serif"
         font-style="normal"
         font-variant="normal"
         font-weight="400"
         font-stretch="normal"
         font-size="41"
         text-anchor="start"
         direction="ltr"
         writing-mode="lr-tb"
         unicode-bidi="normal"
         text-decoration="none"
         transform="matrix(1 0 0 1 8069.61 14083)"
         id="text220">0.8</text></g><g
       clip-path="url(#clip20)"
       id="g226"><text
         fill="#595959"
         fill-opacity="1"
         font-family="Calibri,Calibri_MSFontService,sans-serif"
         font-style="normal"
         font-variant="normal"
         font-weight="400"
         font-stretch="normal"
         font-size="41"
         text-anchor="start"
         direction="ltr"
         writing-mode="lr-tb"
         unicode-bidi="normal"
         text-decoration="none"
         transform="matrix(1 0 0 1 8202.92 14083)"
         id="text224">0.9</text></g><g
       clip-path="url(#clip21)"
       id="g230"><text
         fill="#595959"
         fill-opacity="1"
         font-family="Calibri,Calibri_MSFontService,sans-serif"
         font-style="normal"
         font-variant="normal"
         font-weight="400"
         font-stretch="normal"
         font-size="41"
         text-anchor="start"
         direction="ltr"
         writing-mode="lr-tb"
         unicode-bidi="normal"
         text-decoration="none"
         transform="matrix(1 0 0 1 8351.88 14083)"
         id="text228">1</text></g><g
       clip-path="url(#clip22)"
       id="g234"
       transform="matrix(0.84228388,0,0,1,966.51791,0)"><text
         fill="#595959"
         fill-opacity="1"
         font-family="Calibri, Calibri_MSFontService, sans-serif"
         font-style="normal"
         font-variant="normal"
         font-weight="400"
         font-stretch="normal"
         font-size="41px"
         text-anchor="start"
         direction="ltr"
         writing-mode="lr-tb"
         unicode-bidi="normal"
         text-decoration="none"
         transform="translate(6126.11,13945)"
         id="text232"
         style="text-decoration:none;text-decoration-line:none">cl-tohoku/bert-base-japanese-whole-word-masking</text></g><g
       clip-path="url(#clip23)"
       id="g238"
       transform="translate(-57.51)"><text
         fill="#595959"
         fill-opacity="1"
         font-family="Calibri, Calibri_MSFontService, sans-serif"
         font-style="normal"
         font-variant="normal"
         font-weight="400"
         font-stretch="normal"
         font-size="41px"
         text-anchor="start"
         direction="ltr"
         writing-mode="lr-tb"
         unicode-bidi="normal"
         text-decoration="none"
         transform="translate(6583.51,13780)"
         id="text236"
         style="text-decoration:none;text-decoration-line:none">Twitter/twhin-bert-base</text></g><g
       clip-path="url(#clip24)"
       id="g242"
       transform="translate(-83.933613)"><text
         fill="#595959"
         fill-opacity="1"
         font-family="Calibri, Calibri_MSFontService, sans-serif"
         font-style="normal"
         font-variant="normal"
         font-weight="400"
         font-stretch="normal"
         font-size="41px"
         text-anchor="start"
         direction="ltr"
         writing-mode="lr-tb"
         unicode-bidi="normal"
         text-decoration="none"
         transform="translate(6531.23,13615)"
         id="text240"
         style="text-decoration:none;text-decoration-line:none">hajime9652/xlnet-japanese</text></g><g
       clip-path="url(#clip25)"
       id="g246"
       transform="translate(-91.163613)"><text
         fill="#595959"
         fill-opacity="1"
         font-family="Calibri, Calibri_MSFontService, sans-serif"
         font-style="normal"
         font-variant="normal"
         font-weight="400"
         font-stretch="normal"
         font-size="41px"
         text-anchor="start"
         direction="ltr"
         writing-mode="lr-tb"
         unicode-bidi="normal"
         text-decoration="none"
         transform="translate(6508.46,13449)"
         id="text244"
         style="text-decoration:none;text-decoration-line:none">rinna/japanese-roberta-base</text></g><g
       clip-path="url(#clip26)"
       id="g250"
       transform="translate(-115.33361)"><text
         fill="#595959"
         fill-opacity="1"
         font-family="Calibri, Calibri_MSFontService, sans-serif"
         font-style="normal"
         font-variant="normal"
         font-weight="400"
         font-stretch="normal"
         font-size="41px"
         text-anchor="start"
         direction="ltr"
         writing-mode="lr-tb"
         unicode-bidi="normal"
         text-decoration="none"
         transform="translate(6402.63,13284)"
         id="text248"
         style="text-decoration:none;text-decoration-line:none">nlp-waseda/roberta-base-japanese</text></g><g
       clip-path="url(#clip27)"
       id="g254"
       transform="translate(-51.201172)"><text
         fill="#595959"
         fill-opacity="1"
         font-family="Calibri, Calibri_MSFontService, sans-serif"
         font-style="normal"
         font-variant="normal"
         font-weight="400"
         font-stretch="normal"
         font-size="41px"
         text-anchor="start"
         direction="ltr"
         writing-mode="lr-tb"
         unicode-bidi="normal"
         text-decoration="none"
         transform="translate(6701,13119)"
         id="text252"
         style="text-decoration:none;text-decoration-line:none">xlm-roberta-base</text></g><g
       clip-path="url(#clip28)"
       id="g258"><text
         fill="#595959"
         fill-opacity="1"
         font-family="Calibri,Calibri_MSFontService,sans-serif"
         font-style="normal"
         font-variant="normal"
         font-weight="400"
         font-stretch="normal"
         font-size="64"
         text-anchor="start"
         direction="ltr"
         writing-mode="lr-tb"
         unicode-bidi="normal"
         text-decoration="none"
         transform="matrix(1 0 0 1 6846.04 12952)"
         id="text256">Precision of Each Emotion Label</text></g><g
       clip-path="url(#clip29)"
       id="g262"><rect
         x="6539"
         y="14151"
         width="22"
         height="23"
         fill="#9E480E"
         fill-opacity="1"
         id="rect260" /></g><g
       clip-path="url(#clip30)"
       id="g266"><text
         fill="#595959"
         fill-opacity="1"
         font-family="Calibri,Calibri_MSFontService,sans-serif"
         font-style="normal"
         font-variant="normal"
         font-weight="400"
         font-stretch="normal"
         font-size="41"
         text-anchor="start"
         direction="ltr"
         writing-mode="lr-tb"
         unicode-bidi="normal"
         text-decoration="none"
         transform="matrix(1 0 0 1 6570.86 14173)"
         id="text264">Trust</text></g><g
       clip-path="url(#clip31)"
       id="g270"><rect
         x="6698"
         y="14151"
         width="23"
         height="23"
         fill="#264478"
         fill-opacity="1"
         id="rect268" /></g><g
       clip-path="url(#clip32)"
       id="g274"><text
         fill="#595959"
         fill-opacity="1"
         font-family="Calibri,Calibri_MSFontService,sans-serif"
         font-style="normal"
         font-variant="normal"
         font-weight="400"
         font-stretch="normal"
         font-size="41"
         text-anchor="start"
         direction="ltr"
         writing-mode="lr-tb"
         unicode-bidi="normal"
         text-decoration="none"
         transform="matrix(1 0 0 1 6730.6 14173)"
         id="text272">Disgust</text></g><g
       clip-path="url(#clip33)"
       id="g278"><rect
         x="6894"
         y="14151"
         width="23"
         height="23"
         fill="#70AD47"
         fill-opacity="1"
         id="rect276" /></g><g
       clip-path="url(#clip34)"
       id="g282"><text
         fill="#595959"
         fill-opacity="1"
         font-family="Calibri,Calibri_MSFontService,sans-serif"
         font-style="normal"
         font-variant="normal"
         font-weight="400"
         font-stretch="normal"
         font-size="41"
         text-anchor="start"
         direction="ltr"
         writing-mode="lr-tb"
         unicode-bidi="normal"
         text-decoration="none"
         transform="matrix(1 0 0 1 6926.23 14173)"
         id="text280">Fear</text></g><g
       clip-path="url(#clip35)"
       id="g286"><rect
         x="7041"
         y="14151"
         width="23"
         height="23"
         fill="#5B9BD5"
         fill-opacity="1"
         id="rect284" /></g><g
       clip-path="url(#clip36)"
       id="g290"><text
         fill="#595959"
         fill-opacity="1"
         font-family="Calibri,Calibri_MSFontService,sans-serif"
         font-style="normal"
         font-variant="normal"
         font-weight="400"
         font-stretch="normal"
         font-size="41"
         text-anchor="start"
         direction="ltr"
         writing-mode="lr-tb"
         unicode-bidi="normal"
         text-decoration="none"
         transform="matrix(1 0 0 1 7073.48 14173)"
         id="text288">Anger</text></g><g
       clip-path="url(#clip37)"
       id="g294"><rect
         x="7215"
         y="14151"
         width="22"
         height="23"
         fill="#FFC000"
         fill-opacity="1"
         id="rect292" /></g><g
       clip-path="url(#clip38)"
       id="g298"><text
         fill="#595959"
         fill-opacity="1"
         font-family="Calibri,Calibri_MSFontService,sans-serif"
         font-style="normal"
         font-variant="normal"
         font-weight="400"
         font-stretch="normal"
         font-size="41"
         text-anchor="start"
         direction="ltr"
         writing-mode="lr-tb"
         unicode-bidi="normal"
         text-decoration="none"
         transform="matrix(1 0 0 1 7246.99 14173)"
         id="text296">Surprise</text></g><g
       clip-path="url(#clip39)"
       id="g302"><rect
         x="7426"
         y="14151"
         width="22"
         height="23"
         fill="#A5A5A5"
         fill-opacity="1"
         id="rect300" /></g><g
       clip-path="url(#clip40)"
       id="g306"><text
         fill="#595959"
         fill-opacity="1"
         font-family="Calibri,Calibri_MSFontService,sans-serif"
         font-style="normal"
         font-variant="normal"
         font-weight="400"
         font-stretch="normal"
         font-size="41"
         text-anchor="start"
         direction="ltr"
         writing-mode="lr-tb"
         unicode-bidi="normal"
         text-decoration="none"
         transform="matrix(1 0 0 1 7457.83 14173)"
         id="text304">Anticipation</text></g><g
       clip-path="url(#clip41)"
       id="g310"><rect
         x="7703"
         y="14151"
         width="23"
         height="23"
         fill="#ED7D31"
         fill-opacity="1"
         id="rect308" /></g><g
       clip-path="url(#clip42)"
       id="g314"><text
         fill="#595959"
         fill-opacity="1"
         font-family="Calibri,Calibri_MSFontService,sans-serif"
         font-style="normal"
         font-variant="normal"
         font-weight="400"
         font-stretch="normal"
         font-size="41"
         text-anchor="start"
         direction="ltr"
         writing-mode="lr-tb"
         unicode-bidi="normal"
         text-decoration="none"
         transform="matrix(1 0 0 1 7735.34 14173)"
         id="text312">Sadness</text></g><g
       clip-path="url(#clip43)"
       id="g318"><rect
         x="7912"
         y="14151"
         width="22"
         height="23"
         fill="#4472C4"
         fill-opacity="1"
         id="rect316" /></g><g
       clip-path="url(#clip44)"
       id="g322"><text
         fill="#595959"
         fill-opacity="1"
         font-family="Calibri,Calibri_MSFontService,sans-serif"
         font-style="normal"
         font-variant="normal"
         font-weight="400"
         font-stretch="normal"
         font-size="41"
         text-anchor="start"
         direction="ltr"
         writing-mode="lr-tb"
         unicode-bidi="normal"
         text-decoration="none"
         transform="matrix(1 0 0 1 7943.82 14173)"
         id="text320">Joy</text></g><rect
       x="6096.5"
       y="12856.5"
       width="2327"
       height="1373"
       stroke="#D9D9D9"
       stroke-width="3.4375"
       stroke-linecap="butt"
       stroke-linejoin="round"
       stroke-miterlimit="10"
       stroke-opacity="1"
       fill="none"
       id="rect324" /></g></svg>
