<?xml version="1.0" encoding="UTF-8" standalone="no"?>
<svg
   width="2352"
   height="1385"
   xml:space="preserve"
   overflow="hidden"
   version="1.1"
   id="svg328"
   sodipodi:docname="Recall.svg"
   inkscape:version="1.2.2 (b0a84865, 2022-12-01)"
   xmlns:inkscape="http://www.inkscape.org/namespaces/inkscape"
   xmlns:sodipodi="http://sodipodi.sourceforge.net/DTD/sodipodi-0.dtd"
   xmlns="http://www.w3.org/2000/svg"
   xmlns:svg="http://www.w3.org/2000/svg"><sodipodi:namedview
     id="namedview330"
     pagecolor="#ffffff"
     bordercolor="#000000"
     borderopacity="0.25"
     inkscape:showpageshadow="2"
     inkscape:pageopacity="0.0"
     inkscape:pagecheckerboard="0"
     inkscape:deskcolor="#d1d1d1"
     showgrid="false"
     inkscape:zoom="0.48195581"
     inkscape:cx="825.80185"
     inkscape:cy="673.29824"
     inkscape:window-width="1652"
     inkscape:window-height="929"
     inkscape:window-x="0"
     inkscape:window-y="25"
     inkscape:window-maximized="0"
     inkscape:current-layer="g326" /><defs
     id="defs144"><clipPath
       id="clip0"><rect
         x="6118"
         y="14212"
         width="2352"
         height="1385"
         id="rect9" /></clipPath><clipPath
       id="clip1"><rect
         x="6124"
         y="14215"
         width="2339"
         height="1375"
         id="rect12" /></clipPath><clipPath
       id="clip2"><rect
         x="7057"
         y="14385"
         width="1349"
         height="998"
         id="rect15" /></clipPath><clipPath
       id="clip3"><rect
         x="7057"
         y="14385"
         width="1349"
         height="998"
         id="rect18" /></clipPath><clipPath
       id="clip4"><rect
         x="7057"
         y="14385"
         width="1349"
         height="998"
         id="rect21" /></clipPath><clipPath
       id="clip5"><rect
         x="7057"
         y="14385"
         width="1349"
         height="998"
         id="rect24" /></clipPath><clipPath
       id="clip6"><rect
         x="7057"
         y="14385"
         width="1349"
         height="998"
         id="rect27" /></clipPath><clipPath
       id="clip7"><rect
         x="7057"
         y="14385"
         width="1349"
         height="998"
         id="rect30" /></clipPath><clipPath
       id="clip8"><rect
         x="7057"
         y="14385"
         width="1349"
         height="998"
         id="rect33" /></clipPath><clipPath
       id="clip9"><rect
         x="7057"
         y="14385"
         width="1349"
         height="998"
         id="rect36" /></clipPath><clipPath
       id="clip10"><rect
         x="6124"
         y="14215"
         width="2339"
         height="1375"
         id="rect39" /></clipPath><clipPath
       id="clip11"><rect
         x="6124"
         y="14215"
         width="2339"
         height="1375"
         id="rect42" /></clipPath><clipPath
       id="clip12"><rect
         x="6124"
         y="14215"
         width="2339"
         height="1375"
         id="rect45" /></clipPath><clipPath
       id="clip13"><rect
         x="6124"
         y="14215"
         width="2339"
         height="1375"
         id="rect48" /></clipPath><clipPath
       id="clip14"><rect
         x="6124"
         y="14215"
         width="2339"
         height="1375"
         id="rect51" /></clipPath><clipPath
       id="clip15"><rect
         x="6124"
         y="14215"
         width="2339"
         height="1375"
         id="rect54" /></clipPath><clipPath
       id="clip16"><rect
         x="6124"
         y="14215"
         width="2339"
         height="1375"
         id="rect57" /></clipPath><clipPath
       id="clip17"><rect
         x="6124"
         y="14215"
         width="2339"
         height="1375"
         id="rect60" /></clipPath><clipPath
       id="clip18"><rect
         x="6124"
         y="14215"
         width="2339"
         height="1375"
         id="rect63" /></clipPath><clipPath
       id="clip19"><rect
         x="6124"
         y="14215"
         width="2339"
         height="1375"
         id="rect66" /></clipPath><clipPath
       id="clip20"><rect
         x="6124"
         y="14215"
         width="2339"
         height="1375"
         id="rect69" /></clipPath><clipPath
       id="clip21"><rect
         x="6124"
         y="14215"
         width="2339"
         height="1375"
         id="rect72" /></clipPath><clipPath
       id="clip22"><rect
         x="6124"
         y="14215"
         width="2339"
         height="1375"
         id="rect75" /></clipPath><clipPath
       id="clip23"><rect
         x="6124"
         y="14215"
         width="2339"
         height="1375"
         id="rect78" /></clipPath><clipPath
       id="clip24"><rect
         x="6124"
         y="14215"
         width="2339"
         height="1375"
         id="rect81" /></clipPath><clipPath
       id="clip25"><rect
         x="6124"
         y="14215"
         width="2339"
         height="1375"
         id="rect84" /></clipPath><clipPath
       id="clip26"><rect
         x="6124"
         y="14215"
         width="2339"
         height="1375"
         id="rect87" /></clipPath><clipPath
       id="clip27"><rect
         x="6124"
         y="14215"
         width="2339"
         height="1375"
         id="rect90" /></clipPath><clipPath
       id="clip28"><rect
         x="6124"
         y="14215"
         width="2339"
         height="1375"
         id="rect93" /></clipPath><clipPath
       id="clip29"><rect
         x="6124"
         y="14215"
         width="2339"
         height="1375"
         id="rect96" /></clipPath><clipPath
       id="clip30"><rect
         x="6124"
         y="14215"
         width="2339"
         height="1375"
         id="rect99" /></clipPath><clipPath
       id="clip31"><rect
         x="6124"
         y="14215"
         width="2339"
         height="1375"
         id="rect102" /></clipPath><clipPath
       id="clip32"><rect
         x="6124"
         y="14215"
         width="2339"
         height="1375"
         id="rect105" /></clipPath><clipPath
       id="clip33"><rect
         x="6124"
         y="14215"
         width="2339"
         height="1375"
         id="rect108" /></clipPath><clipPath
       id="clip34"><rect
         x="6124"
         y="14215"
         width="2339"
         height="1375"
         id="rect111" /></clipPath><clipPath
       id="clip35"><rect
         x="6124"
         y="14215"
         width="2339"
         height="1375"
         id="rect114" /></clipPath><clipPath
       id="clip36"><rect
         x="6124"
         y="14215"
         width="2339"
         height="1375"
         id="rect117" /></clipPath><clipPath
       id="clip37"><rect
         x="6124"
         y="14215"
         width="2339"
         height="1375"
         id="rect120" /></clipPath><clipPath
       id="clip38"><rect
         x="6124"
         y="14215"
         width="2339"
         height="1375"
         id="rect123" /></clipPath><clipPath
       id="clip39"><rect
         x="6124"
         y="14215"
         width="2339"
         height="1375"
         id="rect126" /></clipPath><clipPath
       id="clip40"><rect
         x="6124"
         y="14215"
         width="2339"
         height="1375"
         id="rect129" /></clipPath><clipPath
       id="clip41"><rect
         x="6124"
         y="14215"
         width="2339"
         height="1375"
         id="rect132" /></clipPath><clipPath
       id="clip42"><rect
         x="6124"
         y="14215"
         width="2339"
         height="1375"
         id="rect135" /></clipPath><clipPath
       id="clip43"><rect
         x="6124"
         y="14215"
         width="2339"
         height="1375"
         id="rect138" /></clipPath><clipPath
       id="clip44"><rect
         x="6124"
         y="14215"
         width="2339"
         height="1375"
         id="rect141" /></clipPath></defs><g
     clip-path="url(#clip0)"
     transform="translate(-6118 -14212)"
     id="g326"><rect
       x="6124"
       y="14216"
       width="2340"
       height="1375"
       fill="#FFFFFF"
       fill-opacity="1"
       id="rect146" /><g
       clip-path="url(#clip1)"
       id="g150"><path
         d="M7191.74 14385.5 7191.74 15379.5M7326.74 14385.5 7326.74 15379.5M7460.75 14385.5 7460.75 15379.5M7595.75 14385.5 7595.75 15379.5M7729.75 14385.5 7729.75 15379.5M7864.76 14385.5 7864.76 15379.5M7999.76 14385.5 7999.76 15379.5M8133.77 14385.5 8133.77 15379.5M8268.77 14385.5 8268.77 15379.5M8403.5 14385.5 8403.5 15379.5"
         stroke="#D9D9D9"
         stroke-width="3.4375"
         stroke-linecap="butt"
         stroke-linejoin="round"
         stroke-miterlimit="10"
         stroke-opacity="1"
         fill="none"
         fill-rule="nonzero"
         id="path148" /></g><g
       clip-path="url(#clip2)"
       id="g154"><path
         d="M8134.27 15364.5 7057 15364.5 7057 15347.5 8134.27 15347.5ZM8228.27 15198.5 7057 15198.5 7057 15181.5 8228.27 15181.5ZM8174.27 15033.5 7057 15033.5 7057 15016.5 8174.27 15016.5ZM8228.27 14867.5 7057 14867.5 7057 14850.5 8228.27 14850.5ZM8201.27 14701.5 7057 14701.5 7057 14684.5 8201.27 14684.5ZM8214.27 14536.5 7057 14536.5 7057 14519.5 8214.27 14519.5Z"
         fill="#4472C4"
         fill-rule="nonzero"
         fill-opacity="1"
         id="path152" /></g><g
       clip-path="url(#clip3)"
       id="g158"><path
         d="M7784.26 15347.5 7057 15347.5 7057 15330.5 7784.26 15330.5ZM7891.26 15181.5 7057 15181.5 7057 15164.5 7891.26 15164.5ZM7730.25 15016.5 7057 15016.5 7057 14999.5 7730.25 14999.5ZM7878.26 14850.5 7057 14850.5 7057 14833.5 7878.26 14833.5ZM7797.26 14684.5 7057 14684.5 7057 14668.5 7797.26 14668.5ZM7811.26 14519.5 7057 14519.5 7057 14502.5 7811.26 14502.5Z"
         fill="#ED7D31"
         fill-rule="nonzero"
         fill-opacity="1"
         id="path156" /></g><g
       clip-path="url(#clip4)"
       id="g162"><path
         d="M8039.26 15330.5 7057 15330.5 7057 15313.5 8039.26 15313.5ZM8080.27 15164.5 7057 15164.5 7057 15148.5 8080.27 15148.5ZM8026.26 14999.5 7057 14999.5 7057 14982.5 8026.26 14982.5ZM8053.26 14833.5 7057 14833.5 7057 14816.5 8053.26 14816.5ZM8053.26 14668.5 7057 14668.5 7057 14651.5 8053.26 14651.5ZM8053.26 14502.5 7057 14502.5 7057 14485.5 8053.26 14485.5Z"
         fill="#A5A5A5"
         fill-rule="nonzero"
         fill-opacity="1"
         id="path160" /></g><g
       clip-path="url(#clip5)"
       id="g166"><path
         d="M7784.26 15313.5 7057 15313.5 7057 15296.5 7784.26 15296.5ZM7864.26 15148.5 7057 15148.5 7057 15131.5 7864.26 15131.5ZM7730.25 14982.5 7057 14982.5 7057 14965.5 7730.25 14965.5ZM7864.26 14816.5 7057 14816.5 7057 14799.5 7864.26 14799.5ZM7811.26 14651.5 7057 14651.5 7057 14634.5 7811.26 14634.5ZM7824.26 14485.5 7057 14485.5 7057 14468.5 7824.26 14468.5Z"
         fill="#FFC000"
         fill-rule="nonzero"
         fill-opacity="1"
         id="path164" /></g><g
       clip-path="url(#clip6)"
       id="g170"><path
         d="M7878.26 15296.5 7057 15296.5 7057 15279.5 7878.26 15279.5ZM7959.26 15131.5 7057 15131.5 7057 15114.5 7959.26 15114.5ZM7905.26 14965.5 7057 14965.5 7057 14948.5 7905.26 14948.5ZM7972.26 14799.5 7057 14799.5 7057 14783.5 7972.26 14783.5ZM7918.26 14634.5 7057 14634.5 7057 14617.5 7918.26 14617.5ZM7905.26 14468.5 7057 14468.5 7057 14451.5 7905.26 14451.5Z"
         fill="#5B9BD5"
         fill-rule="nonzero"
         fill-opacity="1"
         id="path168" /></g><g
       clip-path="url(#clip7)"
       id="g174"><path
         d="M7568.25 15279.5 7057 15279.5 7057 15263.5 7568.25 15263.5ZM7609.25 15114.5 7057 15114.5 7057 15097.5 7609.25 15097.5ZM7515.25 14948.5 7057 14948.5 7057 14931.5 7515.25 14931.5ZM7555.25 14783.5 7057 14783.5 7057 14766.5 7555.25 14766.5ZM7568.25 14617.5 7057 14617.5 7057 14600.5 7568.25 14600.5ZM7555.25 14451.5 7057 14451.5 7057 14434.5 7555.25 14434.5Z"
         fill="#70AD47"
         fill-rule="nonzero"
         fill-opacity="1"
         id="path172" /></g><g
       clip-path="url(#clip8)"
       id="g178"><path
         d="M7811.26 15263.5 7057 15263.5 7057 15246.5 7811.26 15246.5ZM7918.26 15097.5 7057 15097.5 7057 15080.5 7918.26 15080.5ZM7797.26 14931.5 7057 14931.5 7057 14914.5 7797.26 14914.5ZM7851.26 14766.5 7057 14766.5 7057 14749.5 7851.26 14749.5ZM7797.26 14600.5 7057 14600.5 7057 14583.5 7797.26 14583.5ZM7797.26 14434.5 7057 14434.5 7057 14418.5 7797.26 14418.5Z"
         fill="#264478"
         fill-rule="nonzero"
         fill-opacity="1"
         id="path176" /></g><g
       clip-path="url(#clip9)"
       id="g182"><path
         d="M7797.26 15246.5 7057 15246.5 7057 15229.5 7797.26 15229.5ZM7905.26 15080.5 7057 15080.5 7057 15063.5 7905.26 15063.5ZM7770.25 14914.5 7057 14914.5 7057 14898.5 7770.25 14898.5ZM7864.26 14749.5 7057 14749.5 7057 14732.5 7864.26 14732.5ZM7811.26 14583.5 7057 14583.5 7057 14566.5 7811.26 14566.5ZM7838.26 14418.5 7057 14418.5 7057 14401.5 7838.26 14401.5Z"
         fill="#9E480E"
         fill-rule="nonzero"
         fill-opacity="1"
         id="path180" /></g><g
       clip-path="url(#clip10)"
       id="g186"><path
         d="M0 0 0.000360892 994"
         stroke="#D9D9D9"
         stroke-width="3.4375"
         stroke-linecap="butt"
         stroke-linejoin="round"
         stroke-miterlimit="10"
         stroke-opacity="1"
         fill="none"
         fill-rule="evenodd"
         transform="matrix(1 0 0 -1 7057.5 15379.5)"
         id="path184" /></g><g
       clip-path="url(#clip11)"
       id="g190"><text
         fill="#595959"
         fill-opacity="1"
         font-family="Calibri,Calibri_MSFontService,sans-serif"
         font-style="normal"
         font-variant="normal"
         font-weight="400"
         font-stretch="normal"
         font-size="41"
         text-anchor="start"
         direction="ltr"
         writing-mode="lr-tb"
         unicode-bidi="normal"
         text-decoration="none"
         transform="matrix(1 0 0 1 7046.82 15445)"
         id="text188">0</text></g><g
       clip-path="url(#clip12)"
       id="g194"><text
         fill="#595959"
         fill-opacity="1"
         font-family="Calibri,Calibri_MSFontService,sans-serif"
         font-style="normal"
         font-variant="normal"
         font-weight="400"
         font-stretch="normal"
         font-size="41"
         text-anchor="start"
         direction="ltr"
         writing-mode="lr-tb"
         unicode-bidi="normal"
         text-decoration="none"
         transform="matrix(1 0 0 1 7165.74 15445)"
         id="text192">0.1</text></g><g
       clip-path="url(#clip13)"
       id="g198"><text
         fill="#595959"
         fill-opacity="1"
         font-family="Calibri,Calibri_MSFontService,sans-serif"
         font-style="normal"
         font-variant="normal"
         font-weight="400"
         font-stretch="normal"
         font-size="41"
         text-anchor="start"
         direction="ltr"
         writing-mode="lr-tb"
         unicode-bidi="normal"
         text-decoration="none"
         transform="matrix(1 0 0 1 7300.32 15445)"
         id="text196">0.2</text></g><g
       clip-path="url(#clip14)"
       id="g202"><text
         fill="#595959"
         fill-opacity="1"
         font-family="Calibri,Calibri_MSFontService,sans-serif"
         font-style="normal"
         font-variant="normal"
         font-weight="400"
         font-stretch="normal"
         font-size="41"
         text-anchor="start"
         direction="ltr"
         writing-mode="lr-tb"
         unicode-bidi="normal"
         text-decoration="none"
         transform="matrix(1 0 0 1 7434.89 15445)"
         id="text200">0.3</text></g><g
       clip-path="url(#clip15)"
       id="g206"><text
         fill="#595959"
         fill-opacity="1"
         font-family="Calibri,Calibri_MSFontService,sans-serif"
         font-style="normal"
         font-variant="normal"
         font-weight="400"
         font-stretch="normal"
         font-size="41"
         text-anchor="start"
         direction="ltr"
         writing-mode="lr-tb"
         unicode-bidi="normal"
         text-decoration="none"
         transform="matrix(1 0 0 1 7569.47 15445)"
         id="text204">0.4</text></g><g
       clip-path="url(#clip16)"
       id="g210"><text
         fill="#595959"
         fill-opacity="1"
         font-family="Calibri,Calibri_MSFontService,sans-serif"
         font-style="normal"
         font-variant="normal"
         font-weight="400"
         font-stretch="normal"
         font-size="41"
         text-anchor="start"
         direction="ltr"
         writing-mode="lr-tb"
         unicode-bidi="normal"
         text-decoration="none"
         transform="matrix(1 0 0 1 7704.04 15445)"
         id="text208">0.5</text></g><g
       clip-path="url(#clip17)"
       id="g214"><text
         fill="#595959"
         fill-opacity="1"
         font-family="Calibri,Calibri_MSFontService,sans-serif"
         font-style="normal"
         font-variant="normal"
         font-weight="400"
         font-stretch="normal"
         font-size="41"
         text-anchor="start"
         direction="ltr"
         writing-mode="lr-tb"
         unicode-bidi="normal"
         text-decoration="none"
         transform="matrix(1 0 0 1 7838.62 15445)"
         id="text212">0.6</text></g><g
       clip-path="url(#clip18)"
       id="g218"><text
         fill="#595959"
         fill-opacity="1"
         font-family="Calibri,Calibri_MSFontService,sans-serif"
         font-style="normal"
         font-variant="normal"
         font-weight="400"
         font-stretch="normal"
         font-size="41"
         text-anchor="start"
         direction="ltr"
         writing-mode="lr-tb"
         unicode-bidi="normal"
         text-decoration="none"
         transform="matrix(1 0 0 1 7973.19 15445)"
         id="text216">0.7</text></g><g
       clip-path="url(#clip19)"
       id="g222"><text
         fill="#595959"
         fill-opacity="1"
         font-family="Calibri,Calibri_MSFontService,sans-serif"
         font-style="normal"
         font-variant="normal"
         font-weight="400"
         font-stretch="normal"
         font-size="41"
         text-anchor="start"
         direction="ltr"
         writing-mode="lr-tb"
         unicode-bidi="normal"
         text-decoration="none"
         transform="matrix(1 0 0 1 8107.77 15445)"
         id="text220">0.8</text></g><g
       clip-path="url(#clip20)"
       id="g226"><text
         fill="#595959"
         fill-opacity="1"
         font-family="Calibri,Calibri_MSFontService,sans-serif"
         font-style="normal"
         font-variant="normal"
         font-weight="400"
         font-stretch="normal"
         font-size="41"
         text-anchor="start"
         direction="ltr"
         writing-mode="lr-tb"
         unicode-bidi="normal"
         text-decoration="none"
         transform="matrix(1 0 0 1 8242.34 15445)"
         id="text224">0.9</text></g><g
       clip-path="url(#clip21)"
       id="g230"><text
         fill="#595959"
         fill-opacity="1"
         font-family="Calibri,Calibri_MSFontService,sans-serif"
         font-style="normal"
         font-variant="normal"
         font-weight="400"
         font-stretch="normal"
         font-size="41"
         text-anchor="start"
         direction="ltr"
         writing-mode="lr-tb"
         unicode-bidi="normal"
         text-decoration="none"
         transform="matrix(1 0 0 1 8392.57 15445)"
         id="text228">1</text></g><g
       clip-path="url(#clip22)"
       id="g234"
       transform="matrix(0.84228388,0,0,1,970.93865,0)"><text
         fill="#595959"
         fill-opacity="1"
         font-family="Calibri, Calibri_MSFontService, sans-serif"
         font-style="normal"
         font-variant="normal"
         font-weight="400"
         font-stretch="normal"
         font-size="41px"
         text-anchor="start"
         direction="ltr"
         writing-mode="lr-tb"
         unicode-bidi="normal"
         text-decoration="none"
         transform="translate(6154.14,15307)"
         id="text232"
         style="text-decoration:none;text-decoration-line:none">cl-tohoku/bert-base-japanese-whole-word-masking</text></g><g
       clip-path="url(#clip23)"
       id="g238"
       transform="translate(-58.54)"><text
         fill="#595959"
         fill-opacity="1"
         font-family="Calibri, Calibri_MSFontService, sans-serif"
         font-style="normal"
         font-variant="normal"
         font-weight="400"
         font-stretch="normal"
         font-size="41px"
         text-anchor="start"
         direction="ltr"
         writing-mode="lr-tb"
         unicode-bidi="normal"
         text-decoration="none"
         transform="translate(6611.54,15141)"
         id="text236"
         style="text-decoration:none;text-decoration-line:none">Twitter/twhin-bert-base</text></g><g
       clip-path="url(#clip24)"
       id="g242"
       transform="translate(-89.973613)"><text
         fill="#595959"
         fill-opacity="1"
         font-family="Calibri, Calibri_MSFontService, sans-serif"
         font-style="normal"
         font-variant="normal"
         font-weight="400"
         font-stretch="normal"
         font-size="41px"
         text-anchor="start"
         direction="ltr"
         writing-mode="lr-tb"
         unicode-bidi="normal"
         text-decoration="none"
         transform="translate(6559.27,14976)"
         id="text240"
         style="text-decoration:none;text-decoration-line:none">hajime9652/xlnet-japanese</text></g><g
       clip-path="url(#clip25)"
       id="g246"
       transform="translate(-92.193613)"><text
         fill="#595959"
         fill-opacity="1"
         font-family="Calibri, Calibri_MSFontService, sans-serif"
         font-style="normal"
         font-variant="normal"
         font-weight="400"
         font-stretch="normal"
         font-size="41px"
         text-anchor="start"
         direction="ltr"
         writing-mode="lr-tb"
         unicode-bidi="normal"
         text-decoration="none"
         transform="translate(6536.49,14810)"
         id="text244"
         style="text-decoration:none;text-decoration-line:none">rinna/japanese-roberta-base</text></g><g
       clip-path="url(#clip26)"
       id="g250"
       transform="translate(-116.36361)"><text
         fill="#595959"
         fill-opacity="1"
         font-family="Calibri, Calibri_MSFontService, sans-serif"
         font-style="normal"
         font-variant="normal"
         font-weight="400"
         font-stretch="normal"
         font-size="41px"
         text-anchor="start"
         direction="ltr"
         writing-mode="lr-tb"
         unicode-bidi="normal"
         text-decoration="none"
         transform="translate(6430.66,14644)"
         id="text248"
         style="text-decoration:none;text-decoration-line:none">nlp-waseda/roberta-base-japanese</text></g><g
       clip-path="url(#clip27)"
       id="g254"
       transform="translate(-52.231172)"><text
         fill="#595959"
         fill-opacity="1"
         font-family="Calibri, Calibri_MSFontService, sans-serif"
         font-style="normal"
         font-variant="normal"
         font-weight="400"
         font-stretch="normal"
         font-size="41px"
         text-anchor="start"
         direction="ltr"
         writing-mode="lr-tb"
         unicode-bidi="normal"
         text-decoration="none"
         transform="translate(6729.03,14479)"
         id="text252"
         style="text-decoration:none;text-decoration-line:none">xlm-roberta-base</text></g><g
       clip-path="url(#clip28)"
       id="g258"><text
         fill="#595959"
         fill-opacity="1"
         font-family="Calibri,Calibri_MSFontService,sans-serif"
         font-style="normal"
         font-variant="normal"
         font-weight="400"
         font-stretch="normal"
         font-size="64"
         text-anchor="start"
         direction="ltr"
         writing-mode="lr-tb"
         unicode-bidi="normal"
         text-decoration="none"
         transform="matrix(1 0 0 1 6922.1 14311)"
         id="text256">Recall of Each Emotion Label</text></g><g
       clip-path="url(#clip29)"
       id="g262"><rect
         x="6573"
         y="15513"
         width="23"
         height="23"
         fill="#9E480E"
         fill-opacity="1"
         id="rect260" /></g><g
       clip-path="url(#clip30)"
       id="g266"><text
         fill="#595959"
         fill-opacity="1"
         font-family="Calibri,Calibri_MSFontService,sans-serif"
         font-style="normal"
         font-variant="normal"
         font-weight="400"
         font-stretch="normal"
         font-size="41"
         text-anchor="start"
         direction="ltr"
         writing-mode="lr-tb"
         unicode-bidi="normal"
         text-decoration="none"
         transform="matrix(1 0 0 1 6605.22 15535)"
         id="text264">Trust</text></g><g
       clip-path="url(#clip31)"
       id="g270"><rect
         x="6733"
         y="15513"
         width="22"
         height="23"
         fill="#264478"
         fill-opacity="1"
         id="rect268" /></g><g
       clip-path="url(#clip32)"
       id="g274"><text
         fill="#595959"
         fill-opacity="1"
         font-family="Calibri,Calibri_MSFontService,sans-serif"
         font-style="normal"
         font-variant="normal"
         font-weight="400"
         font-stretch="normal"
         font-size="41"
         text-anchor="start"
         direction="ltr"
         writing-mode="lr-tb"
         unicode-bidi="normal"
         text-decoration="none"
         transform="matrix(1 0 0 1 6764.96 15535)"
         id="text272">Disgust</text></g><g
       clip-path="url(#clip33)"
       id="g278"><rect
         x="6928"
         y="15513"
         width="23"
         height="23"
         fill="#70AD47"
         fill-opacity="1"
         id="rect276" /></g><g
       clip-path="url(#clip34)"
       id="g282"><text
         fill="#595959"
         fill-opacity="1"
         font-family="Calibri,Calibri_MSFontService,sans-serif"
         font-style="normal"
         font-variant="normal"
         font-weight="400"
         font-stretch="normal"
         font-size="41"
         text-anchor="start"
         direction="ltr"
         writing-mode="lr-tb"
         unicode-bidi="normal"
         text-decoration="none"
         transform="matrix(1 0 0 1 6960.59 15535)"
         id="text280">Fear</text></g><g
       clip-path="url(#clip35)"
       id="g286"><rect
         x="7076"
         y="15513"
         width="22"
         height="23"
         fill="#5B9BD5"
         fill-opacity="1"
         id="rect284" /></g><g
       clip-path="url(#clip36)"
       id="g290"><text
         fill="#595959"
         fill-opacity="1"
         font-family="Calibri,Calibri_MSFontService,sans-serif"
         font-style="normal"
         font-variant="normal"
         font-weight="400"
         font-stretch="normal"
         font-size="41"
         text-anchor="start"
         direction="ltr"
         writing-mode="lr-tb"
         unicode-bidi="normal"
         text-decoration="none"
         transform="matrix(1 0 0 1 7107.84 15535)"
         id="text288">Anger</text></g><g
       clip-path="url(#clip37)"
       id="g294"><rect
         x="7249"
         y="15513"
         width="23"
         height="23"
         fill="#FFC000"
         fill-opacity="1"
         id="rect292" /></g><g
       clip-path="url(#clip38)"
       id="g298"><text
         fill="#595959"
         fill-opacity="1"
         font-family="Calibri,Calibri_MSFontService,sans-serif"
         font-style="normal"
         font-variant="normal"
         font-weight="400"
         font-stretch="normal"
         font-size="41"
         text-anchor="start"
         direction="ltr"
         writing-mode="lr-tb"
         unicode-bidi="normal"
         text-decoration="none"
         transform="matrix(1 0 0 1 7281.35 15535)"
         id="text296">Surprise</text></g><g
       clip-path="url(#clip39)"
       id="g302"><rect
         x="7460"
         y="15513"
         width="23"
         height="23"
         fill="#A5A5A5"
         fill-opacity="1"
         id="rect300" /></g><g
       clip-path="url(#clip40)"
       id="g306"><text
         fill="#595959"
         fill-opacity="1"
         font-family="Calibri,Calibri_MSFontService,sans-serif"
         font-style="normal"
         font-variant="normal"
         font-weight="400"
         font-stretch="normal"
         font-size="41"
         text-anchor="start"
         direction="ltr"
         writing-mode="lr-tb"
         unicode-bidi="normal"
         text-decoration="none"
         transform="matrix(1 0 0 1 7492.19 15535)"
         id="text304">Anticipation</text></g><g
       clip-path="url(#clip41)"
       id="g310"><rect
         x="7737"
         y="15513"
         width="23"
         height="23"
         fill="#ED7D31"
         fill-opacity="1"
         id="rect308" /></g><g
       clip-path="url(#clip42)"
       id="g314"><text
         fill="#595959"
         fill-opacity="1"
         font-family="Calibri,Calibri_MSFontService,sans-serif"
         font-style="normal"
         font-variant="normal"
         font-weight="400"
         font-stretch="normal"
         font-size="41"
         text-anchor="start"
         direction="ltr"
         writing-mode="lr-tb"
         unicode-bidi="normal"
         text-decoration="none"
         transform="matrix(1 0 0 1 7769.7 15535)"
         id="text312">Sadness</text></g><g
       clip-path="url(#clip43)"
       id="g318"><rect
         x="7946"
         y="15513"
         width="23"
         height="23"
         fill="#4472C4"
         fill-opacity="1"
         id="rect316" /></g><g
       clip-path="url(#clip44)"
       id="g322"><text
         fill="#595959"
         fill-opacity="1"
         font-family="Calibri,Calibri_MSFontService,sans-serif"
         font-style="normal"
         font-variant="normal"
         font-weight="400"
         font-stretch="normal"
         font-size="41"
         text-anchor="start"
         direction="ltr"
         writing-mode="lr-tb"
         unicode-bidi="normal"
         text-decoration="none"
         transform="matrix(1 0 0 1 7978.19 15535)"
         id="text320">Joy</text></g><rect
       x="6124.5"
       y="14216.5"
       width="2340"
       height="1375"
       stroke="#D9D9D9"
       stroke-width="3.4375"
       stroke-linecap="butt"
       stroke-linejoin="round"
       stroke-miterlimit="10"
       stroke-opacity="1"
       fill="none"
       id="rect324" /></g></svg>
